<?xml version="1.0" encoding="UTF-8"?>
<!DOCTYPE svg PUBLIC "-//W3C//DTD SVG 1.1//EN" "http://www.w3.org/Graphics/SVG/1.1/DTD/svg11.dtd">
<svg xmlns="http://www.w3.org/2000/svg" version="1.1" width="180px" height="180px" style="shape-rendering:geometricPrecision; text-rendering:geometricPrecision; image-rendering:optimizeQuality; fill-rule:evenodd; clip-rule:evenodd" xmlns:xlink="http://www.w3.org/1999/xlink">
<g><path style="opacity:0.97" fill="#ead2c3" d="M 153.5,149.5 C 153.5,148.5 153.5,147.5 153.5,146.5C 148.882,145.309 146.382,146.975 146,151.5C 143.415,147.066 144.748,144.733 150,144.5C 151.436,144.559 152.769,144.892 154,145.5C 155.38,144.744 155.547,144.078 154.5,143.5C 155.11,142.609 155.443,141.609 155.5,140.5C 155.351,139.448 155.517,138.448 156,137.5C 160.64,134.615 163.807,130.615 165.5,125.5C 165.5,124.833 165.833,124.5 166.5,124.5C 167.434,123.432 167.768,122.099 167.5,120.5C 171.643,113.143 173.643,105.143 173.5,96.5C 172.178,96.33 171.011,96.6634 170,97.5C 169.161,101.637 168.327,105.637 167.5,109.5C 167.335,105.818 167.501,102.152 168,98.5C 168.465,97.0692 169.299,95.9025 170.5,95C 169.906,94.5357 169.239,94.369 168.5,94.5C 171.344,93.1209 173.844,91.1209 176,88.5C 176.808,86.4213 176.641,84.4213 175.5,82.5C 174.145,81.8118 173.145,80.8118 172.5,79.5C 169.011,78.342 165.678,77.0086 162.5,75.5C 164.144,75.2865 165.644,75.6198 167,76.5C 167.494,74.8659 167.66,73.1992 167.5,71.5C 162.5,72.5 160.5,70.5 161.5,65.5C 158.102,65.1796 154.768,65.513 151.5,66.5C 149.826,68.4301 149.493,70.4301 150.5,72.5C 147.345,72.0104 144.345,71.3438 141.5,70.5C 144.365,70.9452 146.865,70.2785 149,68.5C 150.525,61.5732 149.025,55.5732 144.5,50.5C 147.419,49.0682 148.752,50.0682 148.5,53.5C 150.5,53.5 152.5,53.5 154.5,53.5C 154.5,55.8333 154.5,58.1667 154.5,60.5C 156.833,60.5 159.167,60.5 161.5,60.5C 161.5,59.1667 161.5,57.8333 161.5,56.5C 163.167,56.5 164.833,56.5 166.5,56.5C 166.768,54.901 166.434,53.5676 165.5,52.5C 163.929,48.0957 161.096,44.7624 157,42.5C 156.79,40.9419 156.29,39.6085 155.5,38.5C 155.5,37.5 155.5,36.5 155.5,35.5C 152.15,35.665 148.817,35.4983 145.5,35C 142.199,32.6263 138.533,31.9596 134.5,33C 133.663,34.0113 133.33,35.1779 133.5,36.5C 132.549,35.0813 132.216,33.4147 132.5,31.5C 135.833,31.5 139.167,31.5 142.5,31.5C 142.433,30.0413 142.766,28.7079 143.5,27.5C 144.471,26.0379 144.138,24.7046 142.5,23.5C 130.993,14.548 117.993,8.88137 103.5,6.5C 102.85,6.80393 102.183,7.13727 101.5,7.5C 99.1489,5.77111 96.4822,5.10445 93.5,5.5C 92.2067,4.84182 90.7067,4.50848 89,4.5C 84.7907,4.97566 80.6241,5.64233 76.5,6.5C 70.6577,6.72297 64.991,7.88963 59.5,10C 50.4888,13.8331 42.1555,18.6664 34.5,24.5C 31.588,26.1988 30.9213,28.5322 32.5,31.5C 30.0706,31.1156 27.7373,30.449 25.5,29.5C 50.2912,4.38118 79.9578,-3.78548 114.5,5C 158.773,21.3551 179.606,53.1885 177,100.5C 174.482,119.532 166.648,135.865 153.5,149.5 Z"/></g>
<g><path style="opacity:1" fill="#fdfcfb" d="M 103.5,6.5 C 117.993,8.88137 130.993,14.548 142.5,23.5C 141.082,25.3079 139.082,25.9746 136.5,25.5C 136.703,23.6096 136.037,22.1096 134.5,21C 131.447,20.8214 128.447,20.3214 125.5,19.5C 124.907,17.6183 124.24,15.7849 123.5,14C 117.833,13.3333 112.167,13.3333 106.5,14C 105.501,16.7611 103.501,18.0944 100.5,18C 99,18.8333 97.8333,20 97,21.5C 96.502,18.5184 96.3354,15.5184 96.5,12.5C 101.931,13.9064 104.265,11.9064 103.5,6.5 Z"/></g>
<g><path style="opacity:1" fill="#f8f2ef" d="M 76.5,6.5 C 75.5,11.5 77.5,13.5 82.5,12.5C 82.6641,15.1873 82.4974,17.854 82,20.5C 78.463,18.8325 75.2963,16.6658 72.5,14C 66.8333,13.3333 61.1667,13.3333 55.5,14C 54.8333,16.3333 54.1667,18.6667 53.5,21C 53.8333,21.1667 54.1667,21.3333 54.5,21.5C 55.2208,19.314 55.8875,17.1474 56.5,15C 61.5,14.3333 66.5,14.3333 71.5,15C 72.2738,17.4397 73.9405,18.773 76.5,19C 74.8659,19.4935 73.1992,19.6602 71.5,19.5C 71.5,18.5 71.5,17.5 71.5,16.5C 66.5,16.5 61.5,16.5 56.5,16.5C 56.5,18.8333 56.5,21.1667 56.5,23.5C 54.4727,23.3379 52.4727,23.5045 50.5,24C 53.146,24.4974 55.8127,24.6641 58.5,24.5C 58.5,22.1667 58.5,19.8333 58.5,17.5C 62.1667,17.5 65.8333,17.5 69.5,17.5C 69.5,18.8333 69.5,20.1667 69.5,21.5C 68.7784,21.0825 68.2784,20.4158 68,19.5C 67.6012,19.7284 67.4346,20.0618 67.5,20.5C 65.1667,20.5 62.8333,20.5 60.5,20.5C 61.5938,26.9049 58.9271,29.2382 52.5,27.5C 52.6653,31.1817 52.4986,34.8484 52,38.5C 49.8471,40.4439 47.3471,40.9439 44.5,40C 42.9632,38.8904 42.2965,37.3904 42.5,35.5C 39.2065,35.259 36.2065,36.0924 33.5,38C 30.1832,38.4983 26.8499,38.665 23.5,38.5C 23.5,37.5 23.5,36.5 23.5,35.5C 26.8499,35.665 30.1832,35.4983 33.5,35C 34.056,34.6174 34.3893,34.1174 34.5,33.5C 38.1667,33.5 41.8333,33.5 45.5,33.5C 45.5,34.8333 45.5,36.1667 45.5,37.5C 46.8333,37.5 48.1667,37.5 49.5,37.5C 49.5,32.8333 49.5,28.1667 49.5,23.5C 46.0504,22.7564 44.3838,24.0897 44.5,27.5C 41.4816,27.6646 38.4816,27.498 35.5,27C 34.7476,26.3292 34.4142,25.4959 34.5,24.5C 42.1555,18.6664 50.4888,13.8331 59.5,10C 64.991,7.88963 70.6577,6.72297 76.5,6.5 Z"/></g>
<g><path style="opacity:1" fill="#f0e1d9" d="M 93.5,5.5 C 90.8127,5.33591 88.146,5.50258 85.5,6C 85.0426,6.41395 84.7093,6.91395 84.5,7.5C 86.3462,11.5817 87.0128,15.915 86.5,20.5C 88.5,20.5 90.5,20.5 92.5,20.5C 92.5,16.5 92.5,12.5 92.5,8.5C 95.1873,8.33591 97.854,8.50258 100.5,9C 98.236,9.23622 96.0693,9.73622 94,10.5C 93.5014,14.1516 93.3347,17.8183 93.5,21.5C 90.8333,21.5 88.1667,21.5 85.5,21.5C 85.5,17.8333 85.5,14.1667 85.5,10.5C 83.1432,10.3367 80.8098,10.5034 78.5,11C 80.1341,11.4935 81.8008,11.6602 83.5,11.5C 83.6597,16.0445 83.6597,20.3778 83.5,24.5C 83.7592,28.2396 83.4259,31.9062 82.5,35.5C 83.6888,36.4287 85.0222,36.762 86.5,36.5C 86.1583,37.3382 85.4916,37.6716 84.5,37.5C 80.2329,38.7684 77.2329,41.4351 75.5,45.5C 75.1667,45.5 74.8333,45.5 74.5,45.5C 73.5804,40.1767 75.0804,35.8434 79,32.5C 80.9952,24.3302 77.8285,20.6636 69.5,21.5C 69.5,20.1667 69.5,18.8333 69.5,17.5C 65.8333,17.5 62.1667,17.5 58.5,17.5C 58.5,19.8333 58.5,22.1667 58.5,24.5C 55.8127,24.6641 53.146,24.4974 50.5,24C 52.4727,23.5045 54.4727,23.3379 56.5,23.5C 56.5,21.1667 56.5,18.8333 56.5,16.5C 61.5,16.5 66.5,16.5 71.5,16.5C 71.5,17.5 71.5,18.5 71.5,19.5C 73.1992,19.6602 74.8659,19.4935 76.5,19C 73.9405,18.773 72.2738,17.4397 71.5,15C 66.5,14.3333 61.5,14.3333 56.5,15C 55.8875,17.1474 55.2208,19.314 54.5,21.5C 54.1667,21.3333 53.8333,21.1667 53.5,21C 54.1667,18.6667 54.8333,16.3333 55.5,14C 61.1667,13.3333 66.8333,13.3333 72.5,14C 75.2963,16.6658 78.463,18.8325 82,20.5C 82.4974,17.854 82.6641,15.1873 82.5,12.5C 77.5,13.5 75.5,11.5 76.5,6.5C 80.6241,5.64233 84.7907,4.97566 89,4.5C 90.7067,4.50848 92.2067,4.84182 93.5,5.5 Z"/></g>
<g><path style="opacity:1" fill="#fefdfd" d="M 67.5,20.5 C 67.33,21.8221 67.6634,22.9887 68.5,24C 71.146,24.4974 73.8127,24.6641 76.5,24.5C 76.5,27.1667 76.5,29.8333 76.5,32.5C 75.1779,32.33 74.0113,32.6634 73,33.5C 71.7978,35.6775 71.2978,38.0108 71.5,40.5C 65.4908,40.3338 59.4908,40.5005 53.5,41C 52.1667,42.6667 52.1667,44.3333 53.5,46C 57.1667,46.3333 60.8333,46.6667 64.5,47C 64.9574,47.414 65.2907,47.914 65.5,48.5C 62.2959,49.2036 59.1292,49.8702 56,50.5C 55.2483,53.8936 55.4149,57.227 56.5,60.5C 52.1364,61.0093 47.9697,62.0093 44,63.5C 38.9951,61.2341 35.4951,62.5675 33.5,67.5C 32.914,67.2907 32.414,66.9574 32,66.5C 31.3333,63.8333 31.3333,61.1667 32,58.5C 33.9914,56.5428 35.9914,54.5428 38,52.5C 38.7203,50.8876 38.5536,49.3876 37.5,48C 34.8333,47.3333 32.1667,47.3333 29.5,48C 28.1581,50.8916 25.8248,52.2249 22.5,52C 21.7362,54.0693 21.2362,56.236 21,58.5C 20.4176,54.749 18.2509,53.0824 14.5,53.5C 14.5,52.5 14.5,51.5 14.5,50.5C 16.1535,47.0139 18.6535,44.3473 22,42.5C 22.21,40.9419 22.71,39.6085 23.5,38.5C 26.8499,38.665 30.1832,38.4983 33.5,38C 36.2065,36.0924 39.2065,35.259 42.5,35.5C 42.2965,37.3904 42.9632,38.8904 44.5,40C 47.3471,40.9439 49.8471,40.4439 52,38.5C 52.4986,34.8484 52.6653,31.1817 52.5,27.5C 58.9271,29.2382 61.5938,26.9049 60.5,20.5C 62.8333,20.5 65.1667,20.5 67.5,20.5 Z"/></g>
<g><path style="opacity:1" fill="#fefdfd" d="M 155.5,38.5 C 156.29,39.6085 156.79,40.9419 157,42.5C 161.096,44.7624 163.929,48.0957 165.5,52.5C 161.494,52.4951 158.994,54.4951 158,58.5C 157.955,55.666 157.121,53.166 155.5,51C 152.997,50.8706 150.997,49.8706 149.5,48C 147.167,47.3333 144.833,47.3333 142.5,48C 141.818,52.1665 143.318,55.6665 147,58.5C 147.936,61.792 147.436,64.792 145.5,67.5C 144.738,66.3717 144.071,65.2051 143.5,64C 136.713,62.1229 129.713,61.2896 122.5,61.5C 122.665,57.8183 122.499,54.1516 122,50.5C 119.619,49.565 117.119,49.2317 114.5,49.5C 114.5,48.5 114.5,47.5 114.5,46.5C 118.5,46.5 122.5,46.5 126.5,46.5C 126.5,44.5 126.5,42.5 126.5,40.5C 120.167,40.5 113.833,40.5 107.5,40.5C 108.464,36.1892 106.964,33.1892 103,31.5C 101.422,25.2357 103.922,22.7357 110.5,24C 111.337,22.9887 111.67,21.8221 111.5,20.5C 113.833,20.5 116.167,20.5 118.5,20.5C 117.167,26.5 119.5,28.8333 125.5,27.5C 125.335,30.8499 125.502,34.1832 126,37.5C 128.21,40.2896 131.044,41.123 134.5,40C 136.037,38.8904 136.703,37.3904 136.5,35.5C 139.893,35.0617 142.893,35.8951 145.5,38C 148.817,38.4983 152.15,38.665 155.5,38.5 Z"/></g>
<g><path style="opacity:1" fill="#f5ede8" d="M 93.5,5.5 C 96.4822,5.10445 99.1489,5.77111 101.5,7.5C 102.183,7.13727 102.85,6.80393 103.5,6.5C 104.265,11.9064 101.931,13.9064 96.5,12.5C 96.3354,15.5184 96.502,18.5184 97,21.5C 97.8333,20 99,18.8333 100.5,18C 103.501,18.0944 105.501,16.7611 106.5,14C 112.167,13.3333 117.833,13.3333 123.5,14C 124.24,15.7849 124.907,17.6183 125.5,19.5C 128.447,20.3214 131.447,20.8214 134.5,21C 136.037,22.1096 136.703,23.6096 136.5,25.5C 139.082,25.9746 141.082,25.3079 142.5,23.5C 144.138,24.7046 144.471,26.0379 143.5,27.5C 140.167,27.5 136.833,27.5 133.5,27.5C 133.5,26.1667 133.5,24.8333 133.5,23.5C 129.833,23.5 126.167,23.5 122.5,23.5C 122.5,21.1667 122.5,18.8333 122.5,16.5C 117.5,16.5 112.5,16.5 107.5,16.5C 107.5,17.8333 107.5,19.1667 107.5,20.5C 104.315,20.0196 101.481,20.6863 99,22.5C 97.5772,28.8406 98.7439,34.5072 102.5,39.5C 102.48,40.7261 102.147,41.7261 101.5,42.5C 99.0705,40.0551 96.4038,38.0551 93.5,36.5C 94.5,36.5 95.5,36.5 96.5,36.5C 95.8379,32.5341 95.5045,28.5341 95.5,24.5C 91.5,24.5 87.5,24.5 83.5,24.5C 83.6597,20.3778 83.6597,16.0445 83.5,11.5C 81.8008,11.6602 80.1341,11.4935 78.5,11C 80.8098,10.5034 83.1432,10.3367 85.5,10.5C 85.5,14.1667 85.5,17.8333 85.5,21.5C 88.1667,21.5 90.8333,21.5 93.5,21.5C 93.3347,17.8183 93.5014,14.1516 94,10.5C 96.0693,9.73622 98.236,9.23622 100.5,9C 97.854,8.50258 95.1873,8.33591 92.5,8.5C 92.5,12.5 92.5,16.5 92.5,20.5C 90.5,20.5 88.5,20.5 86.5,20.5C 87.0128,15.915 86.3462,11.5817 84.5,7.5C 84.7093,6.91395 85.0426,6.41395 85.5,6C 88.146,5.50258 90.8127,5.33591 93.5,5.5 Z"/></g>
<g><path style="opacity:1" fill="#fdfcfc" d="M 83.5,24.5 C 87.5,24.5 91.5,24.5 95.5,24.5C 95.5045,28.5341 95.8379,32.5341 96.5,36.5C 95.5,36.5 94.5,36.5 93.5,36.5C 91.1667,36.5 88.8333,36.5 86.5,36.5C 85.0222,36.762 83.6888,36.4287 82.5,35.5C 83.4259,31.9062 83.7592,28.2396 83.5,24.5 Z"/></g>
<g><path style="opacity:1" fill="#f0e0d6" d="M 34.5,33.5 C 32.2344,34.4867 29.5677,34.4867 26.5,33.5C 28.6309,32.8313 30.6309,32.1646 32.5,31.5C 30.9213,28.5322 31.588,26.1988 34.5,24.5C 34.4142,25.4959 34.7476,26.3292 35.5,27C 38.4816,27.498 41.4816,27.6646 44.5,27.5C 44.3838,24.0897 46.0504,22.7564 49.5,23.5C 49.5,28.1667 49.5,32.8333 49.5,37.5C 48.1667,37.5 46.8333,37.5 45.5,37.5C 45.5,36.1667 45.5,34.8333 45.5,33.5C 41.8333,33.5 38.1667,33.5 34.5,33.5 Z"/></g>
<g><path style="opacity:0.972" fill="#ebd3c6" d="M 25.5,29.5 C 27.7373,30.449 30.0706,31.1156 32.5,31.5C 30.6309,32.1646 28.6309,32.8313 26.5,33.5C 29.5677,34.4867 32.2344,34.4867 34.5,33.5C 34.3893,34.1174 34.056,34.6174 33.5,35C 30.1832,35.4983 26.8499,35.665 23.5,35.5C 23.5,36.5 23.5,37.5 23.5,38.5C 22.71,39.6085 22.21,40.9419 22,42.5C 18.6535,44.3473 16.1535,47.0139 14.5,50.5C 13.6942,51.9972 13.0276,53.6639 12.5,55.5C 14.0453,56.4519 15.712,56.7852 17.5,56.5C 17.5,57.8333 17.5,59.1667 17.5,60.5C 19.8333,60.5 22.1667,60.5 24.5,60.5C 24.5,58.1667 24.5,55.8333 24.5,53.5C 26.5,53.5 28.5,53.5 30.5,53.5C 30.5007,49.7482 32.1674,48.7482 35.5,50.5C 34.675,51.3857 33.675,51.719 32.5,51.5C 30.6211,54.5824 29.6211,58.0824 29.5,62C 28.2559,68.5882 30.9226,71.4215 37.5,70.5C 37.5,68.8333 37.5,67.1667 37.5,65.5C 39.1667,65.5 40.8333,65.5 42.5,65.5C 42.1568,67.4832 42.8235,68.8166 44.5,69.5C 40.0135,70.933 35.3469,71.933 30.5,72.5C 28.5215,66.3174 24.1882,63.9841 17.5,65.5C 18.5749,69.938 16.9083,71.938 12.5,71.5C 12.3398,73.1992 12.5065,74.8659 13,76.5C 13.3333,75.8333 13.6667,75.1667 14,74.5C 15.0113,75.3366 16.1779,75.67 17.5,75.5C 12.8381,77.2561 8.67146,79.9227 5,83.5C 4.39112,86.0652 4.89112,88.3985 6.5,90.5C 7.87165,91.5116 9.20498,92.5116 10.5,93.5C 9.62356,93.3691 8.95689,93.7025 8.5,94.5C 11.0708,97.9804 12.2375,101.98 12,106.5C 16.613,106.616 18.4463,108.949 17.5,113.5C 20.8984,113.82 24.2317,113.487 27.5,112.5C 29.2877,107.139 32.9544,105.139 38.5,106.5C 38.2148,108.288 38.5481,109.955 39.5,111.5C 40.4742,109.257 40.8076,106.924 40.5,104.5C 43.7131,104.81 46.7131,104.477 49.5,103.5C 50.1667,103.5 50.8333,103.5 51.5,103.5C 49.0877,105.162 46.2544,106.162 43,106.5C 42.5034,108.81 42.3367,111.143 42.5,113.5C 40.8333,113.5 39.1667,113.5 37.5,113.5C 37.5023,106.775 35.0023,105.775 30,110.5C 29.8333,112.667 29.6667,114.833 29.5,117C 29.6211,120.918 30.6211,124.418 32.5,127.5C 33.675,127.281 34.675,127.614 35.5,128.5C 32.1674,130.252 30.5007,129.252 30.5,125.5C 28.5,125.5 26.5,125.5 24.5,125.5C 24.5,123.167 24.5,120.833 24.5,118.5C 22.1667,118.5 19.8333,118.5 17.5,118.5C 17.5,119.833 17.5,121.167 17.5,122.5C 12.1328,121.986 11.1328,123.652 14.5,127.5C 15.803,131.969 18.6363,134.969 23,136.5C 23.49,137.793 23.6567,139.127 23.5,140.5C 23.5569,141.609 23.8902,142.609 24.5,143.5C 22.179,141.91 21.179,139.577 21.5,136.5C 19.5853,136.216 17.9187,136.549 16.5,137.5C 8.2554,126.285 3.42207,113.618 2,99.5C -0.8985,72.374 6.93483,49.0406 25.5,29.5 Z"/></g>
<g><path style="opacity:1" fill="#6d0b10" d="M 86.5,36.5 C 88.8333,36.5 91.1667,36.5 93.5,36.5C 96.4038,38.0551 99.0705,40.0551 101.5,42.5C 103.181,45.582 103.848,48.9153 103.5,52.5C 102.42,54.9962 101.086,57.3295 99.5,59.5C 96.9392,61.3714 94.4392,63.3714 92,65.5C 90.6217,69.9425 91.7884,73.4425 95.5,76C 100.74,77.6758 106.073,78.8425 111.5,79.5C 112.172,80.2674 113.005,80.9341 114,81.5C 114.667,82.1667 114.667,82.8333 114,83.5C 110.927,84.8584 107.76,86.0251 104.5,87C 94.5,87.6667 84.5,87.6667 74.5,87C 71.8333,86.3333 69.1667,85.6667 66.5,85C 64.6063,83.9207 64.273,82.5874 65.5,81C 71.0832,79.1506 76.7499,77.484 82.5,76C 84.3237,75.34 85.657,74.1733 86.5,72.5C 88.3938,66.3068 86.0604,62.3068 79.5,60.5C 77.3084,57.4502 75.6417,54.1168 74.5,50.5C 74.5,49.8333 74.5,49.1667 74.5,48.5C 74.5,47.5 74.5,46.5 74.5,45.5C 74.8333,45.5 75.1667,45.5 75.5,45.5C 76.7564,45.9038 77.9231,46.5705 79,47.5C 79.7648,47.4301 80.2648,47.0967 80.5,46.5C 82.1667,45.1667 83.8333,43.8333 85.5,42.5C 86.404,41.791 86.7373,40.791 86.5,39.5C 84.0065,39.8693 83.3398,39.2027 84.5,37.5C 85.4916,37.6716 86.1583,37.3382 86.5,36.5 Z"/></g>
<g><path style="opacity:1" fill="#853436" d="M 84.5,37.5 C 83.3398,39.2027 84.0065,39.8693 86.5,39.5C 86.7373,40.791 86.404,41.791 85.5,42.5C 85.1575,40.7748 84.1575,40.2748 82.5,41C 80.981,42.3513 79.6477,43.8513 78.5,45.5C 78.9569,46.2975 79.6236,46.6309 80.5,46.5C 80.2648,47.0967 79.7648,47.4301 79,47.5C 77.9231,46.5705 76.7564,45.9038 75.5,45.5C 77.2329,41.4351 80.2329,38.7684 84.5,37.5 Z"/></g>
<g><path style="opacity:1" fill="#e6d6d7" d="M 85.5,42.5 C 83.8333,43.8333 82.1667,45.1667 80.5,46.5C 79.6236,46.6309 78.9569,46.2975 78.5,45.5C 79.6477,43.8513 80.981,42.3513 82.5,41C 84.1575,40.2748 85.1575,40.7748 85.5,42.5 Z"/></g>
<g><path style="opacity:1" fill="#f5ede8" d="M 133.5,36.5 C 133.33,35.1779 133.663,34.0113 134.5,33C 138.533,31.9596 142.199,32.6263 145.5,35C 148.817,35.4983 152.15,35.665 155.5,35.5C 155.5,36.5 155.5,37.5 155.5,38.5C 152.15,38.665 148.817,38.4983 145.5,38C 142.893,35.8951 139.893,35.0617 136.5,35.5C 136.703,37.3904 136.037,38.8904 134.5,40C 131.044,41.123 128.21,40.2896 126,37.5C 125.502,34.1832 125.335,30.8499 125.5,27.5C 119.5,28.8333 117.167,26.5 118.5,20.5C 116.167,20.5 113.833,20.5 111.5,20.5C 111.67,21.8221 111.337,22.9887 110.5,24C 103.922,22.7357 101.422,25.2357 103,31.5C 106.964,33.1892 108.464,36.1892 107.5,40.5C 113.833,40.5 120.167,40.5 126.5,40.5C 126.5,42.5 126.5,44.5 126.5,46.5C 122.5,46.5 118.5,46.5 114.5,46.5C 114.5,47.5 114.5,48.5 114.5,49.5C 117.119,49.2317 119.619,49.565 122,50.5C 122.499,54.1516 122.665,57.8183 122.5,61.5C 129.713,61.2896 136.713,62.1229 143.5,64C 144.071,65.2051 144.738,66.3717 145.5,67.5C 147.436,64.792 147.936,61.792 147,58.5C 143.318,55.6665 141.818,52.1665 142.5,48C 144.833,47.3333 147.167,47.3333 149.5,48C 150.997,49.8706 152.997,50.8706 155.5,51C 157.121,53.166 157.955,55.666 158,58.5C 158.994,54.4951 161.494,52.4951 165.5,52.5C 166.434,53.5676 166.768,54.901 166.5,56.5C 164.833,56.5 163.167,56.5 161.5,56.5C 161.5,57.8333 161.5,59.1667 161.5,60.5C 159.167,60.5 156.833,60.5 154.5,60.5C 154.5,58.1667 154.5,55.8333 154.5,53.5C 152.5,53.5 150.5,53.5 148.5,53.5C 148.752,50.0682 147.419,49.0682 144.5,50.5C 149.025,55.5732 150.525,61.5732 149,68.5C 146.865,70.2785 144.365,70.9452 141.5,70.5C 141.5,68.8333 141.5,67.1667 141.5,65.5C 139.833,65.5 138.167,65.5 136.5,65.5C 136.5,66.5 136.5,67.5 136.5,68.5C 131.195,67.8058 125.862,67.4724 120.5,67.5C 124.084,65.8818 128.084,64.8818 132.5,64.5C 128.217,63.5078 123.884,63.1744 119.5,63.5C 119.5,59.8333 119.5,56.1667 119.5,52.5C 116.833,52.5 114.167,52.5 111.5,52.5C 111.5,49.8333 111.5,47.1667 111.5,44.5C 115.514,44.6655 119.514,44.4988 123.5,44C 118.845,43.5008 114.179,43.3342 109.5,43.5C 109.5,45.1667 109.5,46.8333 109.5,48.5C 107.833,48.5 106.167,48.5 104.5,48.5C 105.478,41.9959 103.978,36.3292 100,31.5C 98.5056,23.8265 101.672,20.4931 109.5,21.5C 109.5,20.1667 109.5,18.8333 109.5,17.5C 113.167,17.5 116.833,17.5 120.5,17.5C 118.833,24.5 121.5,27.1667 128.5,25.5C 128.335,29.1817 128.501,32.8484 129,36.5C 130.616,37.8009 132.116,37.8009 133.5,36.5 Z"/></g>
<g><path style="opacity:1" fill="#ebd8cf" d="M 143.5,27.5 C 142.766,28.7079 142.433,30.0413 142.5,31.5C 139.167,31.5 135.833,31.5 132.5,31.5C 132.216,33.4147 132.549,35.0813 133.5,36.5C 132.116,37.8009 130.616,37.8009 129,36.5C 128.501,32.8484 128.335,29.1817 128.5,25.5C 121.5,27.1667 118.833,24.5 120.5,17.5C 116.833,17.5 113.167,17.5 109.5,17.5C 109.5,18.8333 109.5,20.1667 109.5,21.5C 101.672,20.4931 98.5056,23.8265 100,31.5C 103.978,36.3292 105.478,41.9959 104.5,48.5C 106.167,48.5 107.833,48.5 109.5,48.5C 109.5,46.8333 109.5,45.1667 109.5,43.5C 114.179,43.3342 118.845,43.5008 123.5,44C 119.514,44.4988 115.514,44.6655 111.5,44.5C 111.5,47.1667 111.5,49.8333 111.5,52.5C 114.167,52.5 116.833,52.5 119.5,52.5C 119.5,56.1667 119.5,59.8333 119.5,63.5C 123.884,63.1744 128.217,63.5078 132.5,64.5C 128.084,64.8818 124.084,65.8818 120.5,67.5C 112.472,67.7367 104.472,67.4034 96.5,66.5C 95.5,66.8333 94.5,67.1667 93.5,67.5C 98.6511,68.1668 103.651,68.8335 108.5,69.5C 105.428,69.1826 102.428,69.5159 99.5,70.5C 103.647,71.167 107.647,71.8337 111.5,72.5C 107.774,72.1774 104.107,72.5108 100.5,73.5C 105.651,74.1668 110.651,74.8335 115.5,75.5C 114.167,75.5 112.833,75.5 111.5,75.5C 111.5,76.8333 111.5,78.1667 111.5,79.5C 106.073,78.8425 100.74,77.6758 95.5,76C 91.7884,73.4425 90.6217,69.9425 92,65.5C 94.4392,63.3714 96.9392,61.3714 99.5,59.5C 99.5,60.8333 99.5,62.1667 99.5,63.5C 105.833,63.5 112.167,63.5 118.5,63.5C 118.5,61.8333 118.5,60.1667 118.5,58.5C 115.5,58.5 112.5,58.5 109.5,58.5C 109.5,55.8333 109.5,53.1667 109.5,50.5C 107.114,50.2587 105.114,50.9254 103.5,52.5C 103.848,48.9153 103.181,45.582 101.5,42.5C 102.147,41.7261 102.48,40.7261 102.5,39.5C 98.7439,34.5072 97.5772,28.8406 99,22.5C 101.481,20.6863 104.315,20.0196 107.5,20.5C 107.5,19.1667 107.5,17.8333 107.5,16.5C 112.5,16.5 117.5,16.5 122.5,16.5C 122.5,18.8333 122.5,21.1667 122.5,23.5C 126.167,23.5 129.833,23.5 133.5,23.5C 133.5,24.8333 133.5,26.1667 133.5,27.5C 136.833,27.5 140.167,27.5 143.5,27.5 Z"/></g>
<g><path style="opacity:1" fill="#f5eeea" d="M 74.5,50.5 C 75.6417,54.1168 77.3084,57.4502 79.5,60.5C 79.5,61.5 79.5,62.5 79.5,63.5C 73.1667,63.5 66.8333,63.5 60.5,63.5C 60.5,60.5 60.5,57.5 60.5,54.5C 62.924,54.1924 65.2573,54.5258 67.5,55.5C 66.9747,56.1924 66.3081,56.6924 65.5,57C 66.7932,57.49 68.1266,57.6567 69.5,57.5C 69.5,55.1667 69.5,52.8333 69.5,50.5C 71.1667,50.5 72.8333,50.5 74.5,50.5 Z"/></g>
<g><path style="opacity:1" fill="#f5eeeb" d="M 99.5,59.5 C 101.086,57.3295 102.42,54.9962 103.5,52.5C 105.114,50.9254 107.114,50.2587 109.5,50.5C 109.5,53.1667 109.5,55.8333 109.5,58.5C 112.5,58.5 115.5,58.5 118.5,58.5C 118.5,60.1667 118.5,61.8333 118.5,63.5C 112.167,63.5 105.833,63.5 99.5,63.5C 99.5,62.1667 99.5,60.8333 99.5,59.5 Z"/></g>
<g><path style="opacity:1" fill="#f6efec" d="M 172.5,79.5 C 171.852,77.9142 171.352,76.2475 171,74.5C 170.667,75.5 170.333,76.5 170,77.5C 169.178,74.8832 168.678,72.2165 168.5,69.5C 166.533,69.7394 164.699,69.4061 163,68.5C 162.502,65.1832 162.335,61.8499 162.5,58.5C 165.079,58.0833 167.246,58.75 169,60.5C 171.925,66.735 173.092,73.0684 172.5,79.5 Z"/></g>
<g><path style="opacity:1" fill="#ead6cd" d="M 74.5,48.5 C 74.5,49.1667 74.5,49.8333 74.5,50.5C 72.8333,50.5 71.1667,50.5 69.5,50.5C 69.5,52.8333 69.5,55.1667 69.5,57.5C 68.1266,57.6567 66.7932,57.49 65.5,57C 66.3081,56.6924 66.9747,56.1924 67.5,55.5C 65.2573,54.5258 62.924,54.1924 60.5,54.5C 60.5,57.5 60.5,60.5 60.5,63.5C 66.8333,63.5 73.1667,63.5 79.5,63.5C 79.5,62.5 79.5,61.5 79.5,60.5C 86.0604,62.3068 88.3938,66.3068 86.5,72.5C 86.5858,71.5041 86.2524,70.6708 85.5,70C 80.1771,69.5006 74.8437,69.334 69.5,69.5C 74.3489,68.8335 79.3489,68.1668 84.5,67.5C 83.6667,67.1667 82.8333,66.8333 82,66.5C 74.166,67.2254 66.3327,67.892 58.5,68.5C 58.5,67.5 58.5,66.5 58.5,65.5C 43.8333,64.8333 43.8333,64.1667 58.5,63.5C 58.5,59.8333 58.5,56.1667 58.5,52.5C 61.5,52.5 64.5,52.5 67.5,52.5C 67.5,49.8333 67.5,47.1667 67.5,44.5C 63.4454,44.8242 59.4454,44.4909 55.5,43.5C 60.1196,42.5067 64.7863,42.1734 69.5,42.5C 69.5,44.5 69.5,46.5 69.5,48.5C 71.1667,48.5 72.8333,48.5 74.5,48.5 Z"/></g>
<g><path style="opacity:1" fill="#f5eee9" d="M 69.5,21.5 C 77.8285,20.6636 80.9952,24.3302 79,32.5C 75.0804,35.8434 73.5804,40.1767 74.5,45.5C 74.5,46.5 74.5,47.5 74.5,48.5C 72.8333,48.5 71.1667,48.5 69.5,48.5C 69.5,46.5 69.5,44.5 69.5,42.5C 64.7863,42.1734 60.1196,42.5067 55.5,43.5C 59.4454,44.4909 63.4454,44.8242 67.5,44.5C 67.5,47.1667 67.5,49.8333 67.5,52.5C 64.5,52.5 61.5,52.5 58.5,52.5C 58.5,56.1667 58.5,59.8333 58.5,63.5C 43.8333,64.1667 43.8333,64.8333 58.5,65.5C 58.5,66.5 58.5,67.5 58.5,68.5C 55.6146,68.1936 52.9479,68.5269 50.5,69.5C 48.5,69.5 46.5,69.5 44.5,69.5C 42.8235,68.8166 42.1568,67.4832 42.5,65.5C 40.8333,65.5 39.1667,65.5 37.5,65.5C 37.5,67.1667 37.5,68.8333 37.5,70.5C 30.9226,71.4215 28.2559,68.5882 29.5,62C 29.6211,58.0824 30.6211,54.5824 32.5,51.5C 33.675,51.719 34.675,51.3857 35.5,50.5C 32.1674,48.7482 30.5007,49.7482 30.5,53.5C 28.5,53.5 26.5,53.5 24.5,53.5C 24.5,55.8333 24.5,58.1667 24.5,60.5C 22.1667,60.5 19.8333,60.5 17.5,60.5C 17.5,59.1667 17.5,57.8333 17.5,56.5C 15.712,56.7852 14.0453,56.4519 12.5,55.5C 13.0276,53.6639 13.6942,51.9972 14.5,50.5C 14.5,51.5 14.5,52.5 14.5,53.5C 18.2509,53.0824 20.4176,54.749 21,58.5C 21.2362,56.236 21.7362,54.0693 22.5,52C 25.8248,52.2249 28.1581,50.8916 29.5,48C 32.1667,47.3333 34.8333,47.3333 37.5,48C 38.5536,49.3876 38.7203,50.8876 38,52.5C 35.9914,54.5428 33.9914,56.5428 32,58.5C 31.3333,61.1667 31.3333,63.8333 32,66.5C 32.414,66.9574 32.914,67.2907 33.5,67.5C 35.4951,62.5675 38.9951,61.2341 44,63.5C 47.9697,62.0093 52.1364,61.0093 56.5,60.5C 55.4149,57.227 55.2483,53.8936 56,50.5C 59.1292,49.8702 62.2959,49.2036 65.5,48.5C 65.2907,47.914 64.9574,47.414 64.5,47C 60.8333,46.6667 57.1667,46.3333 53.5,46C 52.1667,44.3333 52.1667,42.6667 53.5,41C 59.4908,40.5005 65.4908,40.3338 71.5,40.5C 71.2978,38.0108 71.7978,35.6775 73,33.5C 74.0113,32.6634 75.1779,32.33 76.5,32.5C 76.5,29.8333 76.5,27.1667 76.5,24.5C 73.8127,24.6641 71.146,24.4974 68.5,24C 67.6634,22.9887 67.33,21.8221 67.5,20.5C 67.4346,20.0618 67.6012,19.7284 68,19.5C 68.2784,20.4158 68.7784,21.0825 69.5,21.5 Z"/></g>
<g><path style="opacity:1" fill="#f6efeb" d="M 10.5,58.5 C 12.5,58.5 14.5,58.5 16.5,58.5C 16.665,61.8499 16.4983,65.1832 16,68.5C 14.3005,69.4061 12.4672,69.7394 10.5,69.5C 10.169,75.8038 9.669,75.4705 9,68.5C 8.76518,72.32 7.93185,75.9867 6.5,79.5C 6.16667,78.5 5.83333,77.5 5.5,76.5C 6.86065,70.388 8.52731,64.388 10.5,58.5 Z"/></g>
<g><path style="opacity:1" fill="#98585a" d="M 120.5,67.5 C 126.121,68.7983 131.788,69.7983 137.5,70.5C 136.209,70.2627 135.209,70.596 134.5,71.5C 130.846,71.0578 127.179,70.7244 123.5,70.5C 122.081,69.5489 120.415,69.2155 118.5,69.5C 115.167,69.5 111.833,69.5 108.5,69.5C 103.651,68.8335 98.6511,68.1668 93.5,67.5C 94.5,67.1667 95.5,66.8333 96.5,66.5C 104.472,67.4034 112.472,67.7367 120.5,67.5 Z"/></g>
<g><path style="opacity:1" fill="#965457" d="M 69.5,69.5 C 65.1311,69.4672 60.7978,69.8005 56.5,70.5C 54.7354,69.5386 52.7354,69.2053 50.5,69.5C 52.9479,68.5269 55.6146,68.1936 58.5,68.5C 66.3327,67.892 74.166,67.2254 82,66.5C 82.8333,66.8333 83.6667,67.1667 84.5,67.5C 79.3489,68.1668 74.3489,68.8335 69.5,69.5 Z"/></g>
<g><path style="opacity:1" fill="#e3ccc7" d="M 141.5,70.5 C 140.167,70.5 138.833,70.5 137.5,70.5C 131.788,69.7983 126.121,68.7983 120.5,67.5C 125.862,67.4724 131.195,67.8058 136.5,68.5C 136.5,67.5 136.5,66.5 136.5,65.5C 138.167,65.5 139.833,65.5 141.5,65.5C 141.5,67.1667 141.5,68.8333 141.5,70.5 Z"/></g>
<g><path style="opacity:1" fill="#f9f5f4" d="M 108.5,69.5 C 111.833,69.5 115.167,69.5 118.5,69.5C 118.5,70.5 118.5,71.5 118.5,72.5C 116.167,72.5 113.833,72.5 111.5,72.5C 107.647,71.8337 103.647,71.167 99.5,70.5C 102.428,69.5159 105.428,69.1826 108.5,69.5 Z"/></g>
<g><path style="opacity:1" fill="#dec6c2" d="M 118.5,69.5 C 120.415,69.2155 122.081,69.5489 123.5,70.5C 122.5,70.5 121.5,70.5 120.5,70.5C 120.5,71.5 120.5,72.5 120.5,73.5C 117.287,73.81 114.287,73.4767 111.5,72.5C 113.833,72.5 116.167,72.5 118.5,72.5C 118.5,71.5 118.5,70.5 118.5,69.5 Z"/></g>
<g><path style="opacity:1" fill="#f7f1ef" d="M 30.5,72.5 C 26.119,73.3756 21.7857,74.3756 17.5,75.5C 16.1779,75.67 15.0113,75.3366 14,74.5C 13.6667,75.1667 13.3333,75.8333 13,76.5C 12.5065,74.8659 12.3398,73.1992 12.5,71.5C 16.9083,71.938 18.5749,69.938 17.5,65.5C 24.1882,63.9841 28.5215,66.3174 30.5,72.5 Z"/></g>
<g><path style="opacity:1" fill="#f5eeea" d="M 162.5,75.5 C 161.167,75.1667 159.833,74.8333 158.5,74.5C 156.485,73.0762 154.152,72.4095 151.5,72.5C 151.167,72.5 150.833,72.5 150.5,72.5C 149.493,70.4301 149.826,68.4301 151.5,66.5C 154.768,65.513 158.102,65.1796 161.5,65.5C 160.5,70.5 162.5,72.5 167.5,71.5C 167.66,73.1992 167.494,74.8659 167,76.5C 165.644,75.6198 164.144,75.2865 162.5,75.5 Z"/></g>
<g><path style="opacity:1" fill="#965254" d="M 111.5,72.5 C 114.287,73.4767 117.287,73.81 120.5,73.5C 120.5,73.8333 120.5,74.1667 120.5,74.5C 119.209,74.2627 118.209,74.596 117.5,75.5C 116.833,75.5 116.167,75.5 115.5,75.5C 110.651,74.8335 105.651,74.1668 100.5,73.5C 104.107,72.5108 107.774,72.1774 111.5,72.5 Z"/></g>
<g><path style="opacity:1" fill="#c29799" d="M 151.5,72.5 C 154.152,72.4095 156.485,73.0762 158.5,74.5C 155.848,74.5905 153.515,73.9238 151.5,72.5 Z"/></g>
<g><path style="opacity:1" fill="#ecddd9" d="M 123.5,70.5 C 127.179,70.7244 130.846,71.0578 134.5,71.5C 139.697,72.5222 144.697,73.8555 149.5,75.5C 146.167,75.5 142.833,75.5 139.5,75.5C 139.5,76.5 139.5,77.5 139.5,78.5C 133.264,76.7561 126.931,75.4228 120.5,74.5C 120.5,74.1667 120.5,73.8333 120.5,73.5C 120.5,72.5 120.5,71.5 120.5,70.5C 121.5,70.5 122.5,70.5 123.5,70.5 Z"/></g>
<g><path style="opacity:1" fill="#f8f4f4" d="M 149.5,75.5 C 164.025,80.761 164.025,86.261 149.5,92C 146.883,92.8215 144.216,93.3215 141.5,93.5C 140.28,91.9504 140.28,90.2837 141.5,88.5C 142.714,87.3744 143.714,86.0411 144.5,84.5C 143.535,81.8724 141.868,79.8724 139.5,78.5C 139.5,77.5 139.5,76.5 139.5,75.5C 142.833,75.5 146.167,75.5 149.5,75.5 Z"/></g>
<g><path style="opacity:1" fill="#f9f5f5" d="M 39.5,79.5 C 35.2975,81.4215 34.6308,84.0881 37.5,87.5C 38.038,89.1172 38.3713,90.7839 38.5,92.5C 37.5,92.5 36.5,92.5 35.5,92.5C 29.6918,92.1792 24.8585,89.8459 21,85.5C 20.5902,81.3933 22.4235,78.7266 26.5,77.5C 30.6929,75.9253 35.0262,75.4253 39.5,76C 40.1712,76.9862 40.1712,78.1529 39.5,79.5 Z"/></g>
<g><path style="opacity:1" fill="#ede0dd" d="M 69.5,69.5 C 74.8437,69.334 80.1771,69.5006 85.5,70C 86.2524,70.6708 86.5858,71.5041 86.5,72.5C 85.657,74.1733 84.3237,75.34 82.5,76C 76.7499,77.484 71.0832,79.1506 65.5,81C 64.273,82.5874 64.6063,83.9207 66.5,85C 69.1667,85.6667 71.8333,86.3333 74.5,87C 84.5,87.6667 94.5,87.6667 104.5,87C 107.76,86.0251 110.927,84.8584 114,83.5C 114.667,82.8333 114.667,82.1667 114,81.5C 113.005,80.9341 112.172,80.2674 111.5,79.5C 111.5,78.1667 111.5,76.8333 111.5,75.5C 112.833,75.5 114.167,75.5 115.5,75.5C 116.167,75.5 116.833,75.5 117.5,75.5C 122.786,75.6457 127.12,77.6457 130.5,81.5C 130.471,83.0293 129.804,84.196 128.5,85C 125.052,86.9272 121.385,88.2606 117.5,89C 101.863,90.508 86.1966,90.8413 70.5,90C 63.0489,89.599 56.2155,87.4323 50,83.5C 50.2788,79.0594 52.7788,76.726 57.5,76.5C 65.4097,74.8446 73.4097,73.8446 81.5,73.5C 82.2891,73.2172 82.9558,72.7172 83.5,72C 80.3035,71.1955 77.3035,71.3622 74.5,72.5C 67.2693,72.8473 60.2693,73.8473 53.5,75.5C 48.5436,75.905 43.8769,77.2383 39.5,79.5C 40.1712,78.1529 40.1712,76.9862 39.5,76C 35.0262,75.4253 30.6929,75.9253 26.5,77.5C 35.9054,73.1484 45.9054,70.815 56.5,70.5C 60.7978,69.8005 65.1311,69.4672 69.5,69.5 Z"/></g>
<g><path style="opacity:1" fill="#8f4649" d="M 74.5,72.5 C 77.0593,72.1984 79.3926,72.5318 81.5,73.5C 73.4097,73.8446 65.4097,74.8446 57.5,76.5C 56.4324,75.5655 55.099,75.2322 53.5,75.5C 60.2693,73.8473 67.2693,72.8473 74.5,72.5 Z"/></g>
<g><path style="opacity:1" fill="#a97475" d="M 74.5,72.5 C 77.3035,71.3622 80.3035,71.1955 83.5,72C 82.9558,72.7172 82.2891,73.2172 81.5,73.5C 79.3926,72.5318 77.0593,72.1984 74.5,72.5 Z"/></g>
<g><path style="opacity:1" fill="#731619" d="M 117.5,75.5 C 118.209,74.596 119.209,74.2627 120.5,74.5C 126.931,75.4228 133.264,76.7561 139.5,78.5C 141.868,79.8724 143.535,81.8724 144.5,84.5C 143.714,86.0411 142.714,87.3744 141.5,88.5C 123.982,94.1201 105.982,96.4534 87.5,95.5C 70.2125,96.3397 53.5458,93.673 37.5,87.5C 34.6308,84.0881 35.2975,81.4215 39.5,79.5C 43.8769,77.2383 48.5436,75.905 53.5,75.5C 55.099,75.2322 56.4324,75.5655 57.5,76.5C 52.7788,76.726 50.2788,79.0594 50,83.5C 56.2155,87.4323 63.0489,89.599 70.5,90C 86.1966,90.8413 101.863,90.508 117.5,89C 121.385,88.2606 125.052,86.9272 128.5,85C 129.804,84.196 130.471,83.0293 130.5,81.5C 127.12,77.6457 122.786,75.6457 117.5,75.5 Z"/></g>
<g><path style="opacity:1" fill="#e4d0ce" d="M 37.5,87.5 C 53.5458,93.673 70.2125,96.3397 87.5,95.5C 105.982,96.4534 123.982,94.1201 141.5,88.5C 140.28,90.2837 140.28,91.9504 141.5,93.5C 120.875,97.9637 99.8755,99.6303 78.5,98.5C 73.8215,98.6658 69.1548,98.4992 64.5,98C 54.5541,96.9763 44.8874,95.1429 35.5,92.5C 36.5,92.5 37.5,92.5 38.5,92.5C 38.3713,90.7839 38.038,89.1172 37.5,87.5 Z"/></g>
<g><path style="opacity:1" fill="#721417" d="M 134.5,71.5 C 135.209,70.596 136.209,70.2627 137.5,70.5C 138.833,70.5 140.167,70.5 141.5,70.5C 144.345,71.3438 147.345,72.0104 150.5,72.5C 150.833,72.5 151.167,72.5 151.5,72.5C 153.515,73.9238 155.848,74.5905 158.5,74.5C 159.833,74.8333 161.167,75.1667 162.5,75.5C 165.678,77.0086 169.011,78.342 172.5,79.5C 173.145,80.8118 174.145,81.8118 175.5,82.5C 176.641,84.4213 176.808,86.4213 176,88.5C 173.844,91.1209 171.344,93.1209 168.5,94.5C 164.216,95.2613 160.216,96.5947 156.5,98.5C 156.167,98.5 155.833,98.5 155.5,98.5C 150.578,98.8704 145.911,99.8704 141.5,101.5C 140.833,101.5 140.167,101.5 139.5,101.5C 131.229,102.661 122.895,103.328 114.5,103.5C 115.609,102.71 116.942,102.21 118.5,102C 116.699,101.683 116.366,101.016 117.5,100C 104.327,99.831 91.3269,99.331 78.5,98.5C 99.8755,99.6303 120.875,97.9637 141.5,93.5C 144.216,93.3215 146.883,92.8215 149.5,92C 164.025,86.261 164.025,80.761 149.5,75.5C 144.697,73.8555 139.697,72.5222 134.5,71.5 Z"/></g>
<g><path style="opacity:1" fill="#964b4f" d="M 14.5,94.5 C 16.8984,94.2594 18.8984,94.9261 20.5,96.5C 18.1016,96.7406 16.1016,96.0739 14.5,94.5 Z"/></g>
<g><path style="opacity:1" fill="#6f0f13" d="M 44.5,69.5 C 46.5,69.5 48.5,69.5 50.5,69.5C 52.7354,69.2053 54.7354,69.5386 56.5,70.5C 45.9054,70.815 35.9054,73.1484 26.5,77.5C 22.4235,78.7266 20.5902,81.3933 21,85.5C 24.8585,89.8459 29.6918,92.1792 35.5,92.5C 44.8874,95.1429 54.5541,96.9763 64.5,98C 69.1548,98.4992 73.8215,98.6658 78.5,98.5C 91.3269,99.331 104.327,99.831 117.5,100C 116.366,101.016 116.699,101.683 118.5,102C 116.942,102.21 115.609,102.71 114.5,103.5C 113.833,103.5 113.5,103.833 113.5,104.5C 112.167,104.5 110.833,104.5 109.5,104.5C 103.5,104.5 97.5,104.5 91.5,104.5C 90.8537,110.857 93.5204,115.19 99.5,117.5C 101.38,119.926 102.713,122.592 103.5,125.5C 103.69,129.032 103.023,132.365 101.5,135.5C 100.167,136.167 99.1667,137.167 98.5,138.5C 93.6591,140.152 88.6591,140.818 83.5,140.5C 81.5368,139.18 79.5368,137.846 77.5,136.5C 77.0075,134.181 76.0075,132.181 74.5,130.5C 74.5,129.833 74.5,129.167 74.5,128.5C 74.5262,124.019 76.1929,120.353 79.5,117.5C 80.7095,117.068 81.7095,116.401 82.5,115.5C 84.9354,114.73 86.2687,113.063 86.5,110.5C 87.807,108.777 87.807,106.943 86.5,105C 83.5184,104.502 80.5184,104.335 77.5,104.5C 73.5,104.5 69.5,104.5 65.5,104.5C 63.7354,103.539 61.7354,103.205 59.5,103.5C 56.8333,103.5 54.1667,103.5 51.5,103.5C 50.8333,103.5 50.1667,103.5 49.5,103.5C 39.8342,101.299 30.1675,98.9656 20.5,96.5C 18.8984,94.9261 16.8984,94.2594 14.5,94.5C 13.1667,94.1667 11.8333,93.8333 10.5,93.5C 9.20498,92.5116 7.87165,91.5116 6.5,90.5C 4.89112,88.3985 4.39112,86.0652 5,83.5C 8.67146,79.9227 12.8381,77.2561 17.5,75.5C 21.7857,74.3756 26.119,73.3756 30.5,72.5C 35.3469,71.933 40.0135,70.933 44.5,69.5 Z"/></g>
<g><path style="opacity:1" fill="#fbf8f7" d="M 139.5,101.5 C 140.167,101.5 140.833,101.5 141.5,101.5C 146.607,101.956 151.274,100.956 155.5,98.5C 155.833,98.5 156.167,98.5 156.5,98.5C 159.313,98.4519 161.979,97.7853 164.5,96.5C 165.068,99.4116 165.068,102.412 164.5,105.5C 162.335,105.116 160.668,105.783 159.5,107.5C 159.667,107.833 159.833,108.167 160,108.5C 162.078,106.615 164.245,105.949 166.5,106.5C 162.15,106.878 160.483,109.211 161.5,113.5C 158.167,113.5 154.833,113.5 151.5,113.5C 150.239,107.595 146.573,105.262 140.5,106.5C 140.785,108.288 140.452,109.955 139.5,111.5C 138.526,109.257 138.192,106.924 138.5,104.5C 135.482,104.665 132.482,104.498 129.5,104C 133.311,104.083 136.645,103.25 139.5,101.5 Z"/></g>
<g><path style="opacity:1" fill="#e0cbcc" d="M 155.5,98.5 C 151.274,100.956 146.607,101.956 141.5,101.5C 145.911,99.8704 150.578,98.8704 155.5,98.5 Z"/></g>
<g><path style="opacity:1" fill="#f6efeb" d="M 167.5,120.5 C 166.167,120.5 164.833,120.5 163.5,120.5C 163.5,116.833 163.5,113.167 163.5,109.5C 164.833,109.5 166.167,109.5 167.5,109.5C 168.327,105.637 169.161,101.637 170,97.5C 171.011,96.6634 172.178,96.33 173.5,96.5C 173.643,105.143 171.643,113.143 167.5,120.5 Z"/></g>
<g><path style="opacity:1" fill="#f2eae8" d="M 86.5,110.5 C 86.2687,113.063 84.9354,114.73 82.5,115.5C 81.5269,113.052 81.1936,110.385 81.5,107.5C 83.1439,107.714 84.6439,107.38 86,106.5C 86.49,107.793 86.6567,109.127 86.5,110.5 Z"/></g>
<g><path style="opacity:1" fill="#f5eeea" d="M 6.5,90.5 C 7.05709,94.0698 8.22375,97.4031 10,100.5C 10.498,103.482 10.6646,106.482 10.5,109.5C 15.2393,108.407 17.2393,110.24 16.5,115C 17.2393,119.76 15.2393,121.593 10.5,120.5C 8.56126,114.983 7.06126,109.316 6,103.5C 5.18636,98.9796 5.35303,94.6463 6.5,90.5 Z"/></g>
<g><path style="opacity:1" fill="#fefdfd" d="M 23.5,140.5 C 23.6567,139.127 23.49,137.793 23,136.5C 18.6363,134.969 15.803,131.969 14.5,127.5C 16.0354,125.948 17.8687,124.615 20,123.5C 20.3333,122.5 20.6667,121.5 21,120.5C 21.0299,123.615 22.1965,126.115 24.5,128C 26.6633,128.245 28.33,129.245 29.5,131C 32.1667,131.667 34.8333,131.667 37.5,131C 38.5536,129.612 38.7203,128.112 38,126.5C 35.9914,124.457 33.9914,122.457 32,120.5C 30.8837,116.712 31.5504,113.378 34,110.5C 34.2734,112.101 34.7734,113.601 35.5,115C 42.5303,115.96 49.5303,117.127 56.5,118.5C 55.2429,121.823 55.2429,125.156 56.5,128.5C 59.5027,129.085 62.5027,129.752 65.5,130.5C 65.2907,131.086 64.9574,131.586 64.5,132C 60.8333,132.333 57.1667,132.667 53.5,133C 52.1667,134.667 52.1667,136.333 53.5,138C 59.4908,138.499 65.4908,138.666 71.5,138.5C 70.7737,142.271 72.107,144.937 75.5,146.5C 76.48,149.086 76.8134,151.753 76.5,154.5C 73.8127,154.336 71.146,154.503 68.5,155C 67.6634,156.011 67.33,157.178 67.5,158.5C 65.1667,158.5 62.8333,158.5 60.5,158.5C 61.5938,152.095 58.9271,149.762 52.5,151.5C 52.8242,147.445 52.4909,143.445 51.5,139.5C 49.2324,138.456 46.8991,138.289 44.5,139C 42.9632,140.11 42.2965,141.61 42.5,143.5C 39.4359,143.856 36.7693,143.023 34.5,141C 30.8484,140.501 27.1817,140.335 23.5,140.5 Z"/></g>
<g><path style="opacity:1" fill="#fefdfd" d="M 165.5,125.5 C 163.807,130.615 160.64,134.615 156,137.5C 155.517,138.448 155.351,139.448 155.5,140.5C 150.182,140.214 145.016,140.881 140,142.5C 129.007,135.087 124.174,138.087 125.5,151.5C 119.5,150.167 117.167,152.5 118.5,158.5C 116.167,158.5 113.833,158.5 111.5,158.5C 111.67,157.178 111.337,156.011 110.5,155C 103.922,156.264 101.422,153.764 103,147.5C 104.154,146.257 105.488,145.257 107,144.5C 107.333,142.167 107.667,139.833 108,137.5C 114.076,138.476 120.242,138.81 126.5,138.5C 126.5,136.5 126.5,134.5 126.5,132.5C 122.486,132.666 118.486,132.499 114.5,132C 114.043,131.586 113.709,131.086 113.5,130.5C 116.366,129.792 119.2,129.125 122,128.5C 122.499,124.848 122.665,121.182 122.5,117.5C 129.713,117.71 136.713,116.877 143.5,115C 145.285,109.495 146.618,109.995 147.5,116.5C 146.813,120.381 144.98,123.714 142,126.5C 141.28,128.112 141.446,129.612 142.5,131C 144.833,131.667 147.167,131.667 149.5,131C 150.997,129.129 152.997,128.129 155.5,128C 156.956,125.734 157.79,123.234 158,120.5C 159.08,124.291 161.58,125.957 165.5,125.5 Z"/></g>
<g><path style="opacity:1" fill="#f7f0ee" d="M 10.5,93.5 C 11.8333,93.8333 13.1667,94.1667 14.5,94.5C 16.1016,96.0739 18.1016,96.7406 20.5,96.5C 30.1675,98.9656 39.8342,101.299 49.5,103.5C 46.7131,104.477 43.7131,104.81 40.5,104.5C 40.8076,106.924 40.4742,109.257 39.5,111.5C 38.5481,109.955 38.2148,108.288 38.5,106.5C 32.9544,105.139 29.2877,107.139 27.5,112.5C 24.2317,113.487 20.8984,113.82 17.5,113.5C 18.4463,108.949 16.613,106.616 12,106.5C 12.2375,101.98 11.0708,97.9804 8.5,94.5C 8.95689,93.7025 9.62356,93.3691 10.5,93.5 Z"/></g>
<g><path style="opacity:1" fill="#ead5ca" d="M 59.5,103.5 C 61.7354,103.205 63.7354,103.539 65.5,104.5C 63.8333,104.5 62.1667,104.5 60.5,104.5C 60.5,107.5 60.5,110.5 60.5,113.5C 66.8333,113.5 73.1667,113.5 79.5,113.5C 79.2317,110.881 79.565,108.381 80.5,106C 79.2625,105.768 78.2625,105.268 77.5,104.5C 80.5184,104.335 83.5184,104.502 86.5,105C 87.807,106.943 87.807,108.777 86.5,110.5C 86.6567,109.127 86.49,107.793 86,106.5C 84.6439,107.38 83.1439,107.714 81.5,107.5C 81.1936,110.385 81.5269,113.052 82.5,115.5C 81.7095,116.401 80.7095,117.068 79.5,117.5C 73.588,115.544 67.2547,114.877 60.5,115.5C 60.5,117.167 60.5,118.833 60.5,120.5C 63.1873,120.336 65.854,120.503 68.5,121C 69.435,123.381 69.7683,125.881 69.5,128.5C 71.1667,128.5 72.8333,128.5 74.5,128.5C 74.5,129.167 74.5,129.833 74.5,130.5C 72.9582,129.699 71.2915,129.366 69.5,129.5C 69.7564,131.792 69.4231,133.959 68.5,136C 64.1287,136.828 59.7953,136.661 55.5,135.5C 59.4454,134.509 63.4454,134.176 67.5,134.5C 67.5,131.833 67.5,129.167 67.5,126.5C 64.5,126.5 61.5,126.5 58.5,126.5C 58.5,122.833 58.5,119.167 58.5,115.5C 54.774,115.823 51.1073,115.489 47.5,114.5C 51.4454,113.509 55.4454,113.176 59.5,113.5C 59.5,110.167 59.5,106.833 59.5,103.5 Z"/></g>
<g><path style="opacity:1" fill="#f7f0ed" d="M 65.5,104.5 C 69.5,104.5 73.5,104.5 77.5,104.5C 78.2625,105.268 79.2625,105.768 80.5,106C 79.565,108.381 79.2317,110.881 79.5,113.5C 73.1667,113.5 66.8333,113.5 60.5,113.5C 60.5,110.5 60.5,107.5 60.5,104.5C 62.1667,104.5 63.8333,104.5 65.5,104.5 Z"/></g>
<g><path style="opacity:1" fill="#f6f0ec" d="M 103.5,125.5 C 102.713,122.592 101.38,119.926 99.5,117.5C 105.412,115.544 111.745,114.877 118.5,115.5C 118.5,117.167 118.5,118.833 118.5,120.5C 115.5,120.5 112.5,120.5 109.5,120.5C 109.5,123.167 109.5,125.833 109.5,128.5C 107.833,128.5 106.167,128.5 104.5,128.5C 104.737,127.209 104.404,126.209 103.5,125.5 Z"/></g>
<g><path style="opacity:1" fill="#f6f0ed" d="M 79.5,117.5 C 76.1929,120.353 74.5262,124.019 74.5,128.5C 72.8333,128.5 71.1667,128.5 69.5,128.5C 69.7683,125.881 69.435,123.381 68.5,121C 65.854,120.503 63.1873,120.336 60.5,120.5C 60.5,118.833 60.5,117.167 60.5,115.5C 67.2547,114.877 73.588,115.544 79.5,117.5 Z"/></g>
<g><path style="opacity:1" fill="#f5ede9" d="M 166.5,124.5 C 165.833,124.5 165.5,124.833 165.5,125.5C 161.58,125.957 159.08,124.291 158,120.5C 157.79,123.234 156.956,125.734 155.5,128C 152.997,128.129 150.997,129.129 149.5,131C 147.167,131.667 144.833,131.667 142.5,131C 141.446,129.612 141.28,128.112 142,126.5C 144.98,123.714 146.813,120.381 147.5,116.5C 146.618,109.995 145.285,109.495 143.5,115C 136.713,116.877 129.713,117.71 122.5,117.5C 122.665,121.182 122.499,124.848 122,128.5C 119.2,129.125 116.366,129.792 113.5,130.5C 113.709,131.086 114.043,131.586 114.5,132C 118.486,132.499 122.486,132.666 126.5,132.5C 126.5,134.5 126.5,136.5 126.5,138.5C 120.242,138.81 114.076,138.476 108,137.5C 107.667,139.833 107.333,142.167 107,144.5C 105.488,145.257 104.154,146.257 103,147.5C 101.422,153.764 103.922,156.264 110.5,155C 111.337,156.011 111.67,157.178 111.5,158.5C 113.833,158.5 116.167,158.5 118.5,158.5C 117.167,152.5 119.5,150.167 125.5,151.5C 124.174,138.087 129.007,135.087 140,142.5C 145.016,140.881 150.182,140.214 155.5,140.5C 155.443,141.609 155.11,142.609 154.5,143.5C 151.482,143.335 148.482,143.502 145.5,144C 142.276,146.477 138.61,147.143 134.5,146C 133.663,144.989 133.33,143.822 133.5,142.5C 132.116,141.199 130.616,141.199 129,142.5C 128.501,146.152 128.335,149.818 128.5,153.5C 121.5,151.833 118.833,154.5 120.5,161.5C 116.833,161.5 113.167,161.5 109.5,161.5C 109.5,160.167 109.5,158.833 109.5,157.5C 100.555,157.96 97.7215,153.96 101,145.5C 101.689,144.643 102.522,143.977 103.5,143.5C 104.328,139.204 104.828,134.871 105,130.5C 106.356,129.62 107.856,129.286 109.5,129.5C 109.5,131.5 109.5,133.5 109.5,135.5C 114.511,135.666 119.511,135.499 124.5,135C 120.179,134.501 115.846,134.334 111.5,134.5C 111.5,131.833 111.5,129.167 111.5,126.5C 114.5,126.5 117.5,126.5 120.5,126.5C 120.5,122.833 120.5,119.167 120.5,115.5C 136.5,114.833 136.5,114.167 120.5,113.5C 120.5,110.5 120.5,107.5 120.5,104.5C 122.792,104.756 124.959,104.423 127,103.5C 129.48,105.166 132.313,105.999 135.5,106C 136.435,108.381 136.768,110.881 136.5,113.5C 138.167,113.5 139.833,113.5 141.5,113.5C 141.498,106.775 143.998,105.775 149,110.5C 150.525,117.427 149.025,123.427 144.5,128.5C 146.506,129.626 147.84,128.96 148.5,126.5C 150.396,125.534 152.396,125.201 154.5,125.5C 154.5,123.167 154.5,120.833 154.5,118.5C 156.833,118.5 159.167,118.5 161.5,118.5C 161.5,119.833 161.5,121.167 161.5,122.5C 163.781,122.077 165.448,122.744 166.5,124.5 Z"/></g>
<g><path style="opacity:1" fill="#b18083" d="M 80.5,130.5 C 79.6618,130.842 79.3284,131.508 79.5,132.5C 78.2241,131.614 78.2241,130.614 79.5,129.5C 80.1067,129.624 80.44,129.957 80.5,130.5 Z"/></g>
<g><path style="opacity:1" fill="#ece0e1" d="M 80.5,130.5 C 82.1667,131.833 83.8333,133.167 85.5,134.5C 85.5,135.833 84.8333,136.5 83.5,136.5C 81.8333,135.5 80.5,134.167 79.5,132.5C 79.3284,131.508 79.6618,130.842 80.5,130.5 Z"/></g>
<g><path style="opacity:1" fill="#a66d70" d="M 85.5,134.5 C 86.404,135.209 86.7373,136.209 86.5,137.5C 85.209,137.737 84.209,137.404 83.5,136.5C 84.8333,136.5 85.5,135.833 85.5,134.5 Z"/></g>
<g><path style="opacity:1" fill="#ead3c8" d="M 74.5,130.5 C 76.0075,132.181 77.0075,134.181 77.5,136.5C 76.8529,137.274 76.5195,138.274 76.5,139.5C 78.1642,142.017 79.6642,144.683 81,147.5C 82.9148,155.702 79.7481,159.368 71.5,158.5C 71.5,159.833 71.5,161.167 71.5,162.5C 66.5,162.5 61.5,162.5 56.5,162.5C 56.5,160.167 56.5,157.833 56.5,155.5C 54.4727,155.662 52.4727,155.495 50.5,155C 53.146,154.503 55.8127,154.336 58.5,154.5C 58.5,156.833 58.5,159.167 58.5,161.5C 62.1667,161.5 65.8333,161.5 69.5,161.5C 69.5,160.167 69.5,158.833 69.5,157.5C 72.2788,157.721 74.9455,157.388 77.5,156.5C 79.958,153.061 80.1246,149.394 78,145.5C 77.3109,144.643 76.4776,143.977 75.5,143.5C 74.5078,139.217 74.1744,134.884 74.5,130.5 Z"/></g>
<g><path style="opacity:1" fill="#f3eae4" d="M 51.5,103.5 C 54.1667,103.5 56.8333,103.5 59.5,103.5C 59.5,106.833 59.5,110.167 59.5,113.5C 55.4454,113.176 51.4454,113.509 47.5,114.5C 51.1073,115.489 54.774,115.823 58.5,115.5C 58.5,119.167 58.5,122.833 58.5,126.5C 61.5,126.5 64.5,126.5 67.5,126.5C 67.5,129.167 67.5,131.833 67.5,134.5C 63.4454,134.176 59.4454,134.509 55.5,135.5C 59.7953,136.661 64.1287,136.828 68.5,136C 69.4231,133.959 69.7564,131.792 69.5,129.5C 71.2915,129.366 72.9582,129.699 74.5,130.5C 74.1744,134.884 74.5078,139.217 75.5,143.5C 76.4776,143.977 77.3109,144.643 78,145.5C 80.1246,149.394 79.958,153.061 77.5,156.5C 75.0336,155.366 72.367,155.199 69.5,156C 68.8333,157.333 68.1667,158.667 67.5,160C 65.1667,160.667 62.8333,160.667 60.5,160C 59.8333,157.667 59.1667,155.333 58.5,153C 56.1902,152.503 53.8568,152.337 51.5,152.5C 51.6653,148.818 51.4986,145.152 51,141.5C 48.9361,140.409 46.7695,140.242 44.5,141C 43.6634,142.011 43.33,143.178 43.5,144.5C 40.7531,144.187 38.0865,144.52 35.5,145.5C 38.4281,146.484 41.4281,146.817 44.5,146.5C 43.8333,142.5 45.5,140.833 49.5,141.5C 49.5,146.167 49.5,150.833 49.5,155.5C 46.0504,156.244 44.3838,154.91 44.5,151.5C 40.6707,150.931 37.3373,151.598 34.5,153.5C 32.87,151.974 32.0367,149.974 32,147.5C 24.664,145.916 24.8307,144.75 32.5,144C 29.854,143.503 27.1873,143.336 24.5,143.5C 23.8902,142.609 23.5569,141.609 23.5,140.5C 27.1817,140.335 30.8484,140.501 34.5,141C 36.7693,143.023 39.4359,143.856 42.5,143.5C 42.2965,141.61 42.9632,140.11 44.5,139C 46.8991,138.289 49.2324,138.456 51.5,139.5C 52.4909,143.445 52.8242,147.445 52.5,151.5C 58.9271,149.762 61.5938,152.095 60.5,158.5C 62.8333,158.5 65.1667,158.5 67.5,158.5C 67.33,157.178 67.6634,156.011 68.5,155C 71.146,154.503 73.8127,154.336 76.5,154.5C 76.8134,151.753 76.48,149.086 75.5,146.5C 72.107,144.937 70.7737,142.271 71.5,138.5C 65.4908,138.666 59.4908,138.499 53.5,138C 52.1667,136.333 52.1667,134.667 53.5,133C 57.1667,132.667 60.8333,132.333 64.5,132C 64.9574,131.586 65.2907,131.086 65.5,130.5C 62.5027,129.752 59.5027,129.085 56.5,128.5C 55.2429,125.156 55.2429,121.823 56.5,118.5C 49.5303,117.127 42.5303,115.96 35.5,115C 34.7734,113.601 34.2734,112.101 34,110.5C 31.5504,113.378 30.8837,116.712 32,120.5C 33.9914,122.457 35.9914,124.457 38,126.5C 38.7203,128.112 38.5536,129.612 37.5,131C 34.8333,131.667 32.1667,131.667 29.5,131C 28.33,129.245 26.6633,128.245 24.5,128C 22.1965,126.115 21.0299,123.615 21,120.5C 20.6667,121.5 20.3333,122.5 20,123.5C 17.8687,124.615 16.0354,125.948 14.5,127.5C 11.1328,123.652 12.1328,121.986 17.5,122.5C 17.5,121.167 17.5,119.833 17.5,118.5C 19.8333,118.5 22.1667,118.5 24.5,118.5C 24.5,120.833 24.5,123.167 24.5,125.5C 26.5,125.5 28.5,125.5 30.5,125.5C 30.5007,129.252 32.1674,130.252 35.5,128.5C 34.675,127.614 33.675,127.281 32.5,127.5C 30.6211,124.418 29.6211,120.918 29.5,117C 29.6667,114.833 29.8333,112.667 30,110.5C 35.0023,105.775 37.5023,106.775 37.5,113.5C 39.1667,113.5 40.8333,113.5 42.5,113.5C 42.3367,111.143 42.5034,108.81 43,106.5C 46.2544,106.162 49.0877,105.162 51.5,103.5 Z"/></g>
<g><path style="opacity:1" fill="#ecd9cf" d="M 168.5,94.5 C 169.239,94.369 169.906,94.5357 170.5,95C 169.299,95.9025 168.465,97.0692 168,98.5C 167.501,102.152 167.335,105.818 167.5,109.5C 166.167,109.5 164.833,109.5 163.5,109.5C 163.5,113.167 163.5,116.833 163.5,120.5C 164.833,120.5 166.167,120.5 167.5,120.5C 167.768,122.099 167.434,123.432 166.5,124.5C 165.448,122.744 163.781,122.077 161.5,122.5C 161.5,121.167 161.5,119.833 161.5,118.5C 159.167,118.5 156.833,118.5 154.5,118.5C 154.5,120.833 154.5,123.167 154.5,125.5C 152.396,125.201 150.396,125.534 148.5,126.5C 147.84,128.96 146.506,129.626 144.5,128.5C 149.025,123.427 150.525,117.427 149,110.5C 143.998,105.775 141.498,106.775 141.5,113.5C 139.833,113.5 138.167,113.5 136.5,113.5C 136.768,110.881 136.435,108.381 135.5,106C 132.313,105.999 129.48,105.166 127,103.5C 124.959,104.423 122.792,104.756 120.5,104.5C 120.5,107.5 120.5,110.5 120.5,113.5C 136.5,114.167 136.5,114.833 120.5,115.5C 120.5,119.167 120.5,122.833 120.5,126.5C 117.5,126.5 114.5,126.5 111.5,126.5C 111.5,129.167 111.5,131.833 111.5,134.5C 115.846,134.334 120.179,134.501 124.5,135C 119.511,135.499 114.511,135.666 109.5,135.5C 109.5,133.5 109.5,131.5 109.5,129.5C 107.856,129.286 106.356,129.62 105,130.5C 104.828,134.871 104.328,139.204 103.5,143.5C 102.522,143.977 101.689,144.643 101,145.5C 97.7215,153.96 100.555,157.96 109.5,157.5C 109.5,158.833 109.5,160.167 109.5,161.5C 113.167,161.5 116.833,161.5 120.5,161.5C 118.833,154.5 121.5,151.833 128.5,153.5C 128.335,149.818 128.501,146.152 129,142.5C 130.616,141.199 132.116,141.199 133.5,142.5C 132.549,143.919 132.216,145.585 132.5,147.5C 135.898,147.18 139.232,147.513 142.5,148.5C 142.291,149.086 141.957,149.586 141.5,150C 142.416,150.278 143.082,150.778 143.5,151.5C 140.167,151.5 136.833,151.5 133.5,151.5C 133.5,152.833 133.5,154.167 133.5,155.5C 129.833,155.5 126.167,155.5 122.5,155.5C 122.5,157.833 122.5,160.167 122.5,162.5C 117.5,162.5 112.5,162.5 107.5,162.5C 107.5,161.167 107.5,159.833 107.5,158.5C 104.315,158.98 101.481,158.314 99,156.5C 98.3333,152.833 98.3333,149.167 99,145.5C 99.6667,144.167 100.667,143.167 102,142.5C 102.796,139.961 102.629,137.628 101.5,135.5C 103.023,132.365 103.69,129.032 103.5,125.5C 104.404,126.209 104.737,127.209 104.5,128.5C 106.167,128.5 107.833,128.5 109.5,128.5C 109.5,125.833 109.5,123.167 109.5,120.5C 112.5,120.5 115.5,120.5 118.5,120.5C 118.5,118.833 118.5,117.167 118.5,115.5C 111.745,114.877 105.412,115.544 99.5,117.5C 93.5204,115.19 90.8537,110.857 91.5,104.5C 97.5,104.5 103.5,104.5 109.5,104.5C 106.023,105.323 102.356,105.823 98.5,106C 99.435,108.381 99.7683,110.881 99.5,113.5C 105.833,113.5 112.167,113.5 118.5,113.5C 118.5,110.5 118.5,107.5 118.5,104.5C 116.833,104.5 115.167,104.5 113.5,104.5C 113.5,103.833 113.833,103.5 114.5,103.5C 122.895,103.328 131.229,102.661 139.5,101.5C 136.645,103.25 133.311,104.083 129.5,104C 132.482,104.498 135.482,104.665 138.5,104.5C 138.192,106.924 138.526,109.257 139.5,111.5C 140.452,109.955 140.785,108.288 140.5,106.5C 146.573,105.262 150.239,107.595 151.5,113.5C 154.833,113.5 158.167,113.5 161.5,113.5C 160.483,109.211 162.15,106.878 166.5,106.5C 164.245,105.949 162.078,106.615 160,108.5C 159.833,108.167 159.667,107.833 159.5,107.5C 160.668,105.783 162.335,105.116 164.5,105.5C 165.068,102.412 165.068,99.4116 164.5,96.5C 161.979,97.7853 159.313,98.4519 156.5,98.5C 160.216,96.5947 164.216,95.2613 168.5,94.5 Z"/></g>
<g><path style="opacity:1" fill="#f7f0ed" d="M 109.5,104.5 C 110.833,104.5 112.167,104.5 113.5,104.5C 115.167,104.5 116.833,104.5 118.5,104.5C 118.5,107.5 118.5,110.5 118.5,113.5C 112.167,113.5 105.833,113.5 99.5,113.5C 99.7683,110.881 99.435,108.381 98.5,106C 102.356,105.823 106.023,105.323 109.5,104.5 Z"/></g>
<g><path style="opacity:1" fill="#f6efeb" d="M 101.5,135.5 C 102.629,137.628 102.796,139.961 102,142.5C 100.667,143.167 99.6667,144.167 99,145.5C 98.3333,149.167 98.3333,152.833 99,156.5C 101.481,158.314 104.315,158.98 107.5,158.5C 107.5,159.833 107.5,161.167 107.5,162.5C 112.5,162.5 117.5,162.5 122.5,162.5C 122.5,160.167 122.5,157.833 122.5,155.5C 126.167,155.5 129.833,155.5 133.5,155.5C 133.5,154.167 133.5,152.833 133.5,151.5C 136.833,151.5 140.167,151.5 143.5,151.5C 144.525,151.897 144.692,152.563 144,153.5C 117.923,174.037 89.09,178.871 57.5,168C 48.8589,164.489 41.1923,159.656 34.5,153.5C 37.3373,151.598 40.6707,150.931 44.5,151.5C 44.3838,154.91 46.0504,156.244 49.5,155.5C 49.5,150.833 49.5,146.167 49.5,141.5C 45.5,140.833 43.8333,142.5 44.5,146.5C 41.4281,146.817 38.4281,146.484 35.5,145.5C 38.0865,144.52 40.7531,144.187 43.5,144.5C 43.33,143.178 43.6634,142.011 44.5,141C 46.7695,140.242 48.9361,140.409 51,141.5C 51.4986,145.152 51.6653,148.818 51.5,152.5C 53.8568,152.337 56.1902,152.503 58.5,153C 59.1667,155.333 59.8333,157.667 60.5,160C 62.8333,160.667 65.1667,160.667 67.5,160C 68.1667,158.667 68.8333,157.333 69.5,156C 72.367,155.199 75.0336,155.366 77.5,156.5C 74.9455,157.388 72.2788,157.721 69.5,157.5C 69.5,158.833 69.5,160.167 69.5,161.5C 65.8333,161.5 62.1667,161.5 58.5,161.5C 58.5,159.167 58.5,156.833 58.5,154.5C 55.8127,154.336 53.146,154.503 50.5,155C 52.4727,155.495 54.4727,155.662 56.5,155.5C 56.5,157.833 56.5,160.167 56.5,162.5C 61.5,162.5 66.5,162.5 71.5,162.5C 71.5,161.167 71.5,159.833 71.5,158.5C 79.7481,159.368 82.9148,155.702 81,147.5C 79.6642,144.683 78.1642,142.017 76.5,139.5C 76.5195,138.274 76.8529,137.274 77.5,136.5C 79.5368,137.846 81.5368,139.18 83.5,140.5C 82.448,140.351 81.448,140.517 80.5,141C 81.7014,141.903 82.5348,143.069 83,144.5C 83.4983,147.817 83.665,151.15 83.5,154.5C 87.5,154.5 91.5,154.5 95.5,154.5C 94.3742,148.458 96.0408,143.458 100.5,139.5C 100.043,138.702 99.3764,138.369 98.5,138.5C 99.1667,137.167 100.167,136.167 101.5,135.5 Z"/></g>
<g><path style="opacity:1" fill="#f9f5f5" d="M 98.5,138.5 C 99.3764,138.369 100.043,138.702 100.5,139.5C 96.0408,143.458 94.3742,148.458 95.5,154.5C 91.5,154.5 87.5,154.5 83.5,154.5C 83.665,151.15 83.4983,147.817 83,144.5C 82.5348,143.069 81.7014,141.903 80.5,141C 81.448,140.517 82.448,140.351 83.5,140.5C 88.6591,140.818 93.6591,140.152 98.5,138.5 Z"/></g>
<g><path style="opacity:0.944" fill="#ead1c2" d="M 24.5,143.5 C 27.1873,143.336 29.854,143.503 32.5,144C 24.8307,144.75 24.664,145.916 32,147.5C 32.0367,149.974 32.87,151.974 34.5,153.5C 41.1923,159.656 48.8589,164.489 57.5,168C 89.09,178.871 117.923,174.037 144,153.5C 144.692,152.563 144.525,151.897 143.5,151.5C 143.082,150.778 142.416,150.278 141.5,150C 141.957,149.586 142.291,149.086 142.5,148.5C 139.232,147.513 135.898,147.18 132.5,147.5C 132.216,145.585 132.549,143.919 133.5,142.5C 133.33,143.822 133.663,144.989 134.5,146C 138.61,147.143 142.276,146.477 145.5,144C 148.482,143.502 151.482,143.335 154.5,143.5C 155.547,144.078 155.38,144.744 154,145.5C 152.769,144.892 151.436,144.559 150,144.5C 144.748,144.733 143.415,147.066 146,151.5C 146.382,146.975 148.882,145.309 153.5,146.5C 153.5,147.5 153.5,148.5 153.5,149.5C 132.156,171.338 106.156,180.172 75.5,176C 50.048,171.661 30.3814,158.828 16.5,137.5C 17.9187,136.549 19.5853,136.216 21.5,136.5C 21.179,139.577 22.179,141.91 24.5,143.5 Z"/></g>
</svg>
